<?xml version="1.0" encoding="utf-8"?>
<svg viewBox="0 0 32 32" xmlns="http://www.w3.org/2000/svg">
  <title/>
  <g data-name="Layer 2" id="Layer_2" transform="matrix(1, 0, 0, 1, -0.33195, 0)">
    <style>
	.img{
		fill:#fff;
	}
</style>
    <path class="img" d="M 29.704 14.972 L 16.349 14.929 L 3.06 15.02 C 2.675 15.02 2.362 15.228 2.194 15.52 C 2.025 15.811 2.001 16.186 2.194 16.52 C 2.283 16.674 2.411 16.799 2.56 16.886 C 2.71 16.972 2.881 17.02 3.06 17.02 L 14.82 17.02 L 26.58 17.02 L 24.29 19.305 L 22 21.59 C 21.806 21.785 21.709 22.04 21.709 22.295 C 21.709 22.55 21.806 22.805 22 23 C 22.195 23.194 22.45 23.291 22.705 23.291 C 22.96 23.291 23.215 23.194 23.41 23 L 26.59 19.82 L 29.77 16.64 C 29.95 16.467 30.095 16.36 30.223 16.187 C 30.97 15.175 29.704 14.972 29.704 14.972 Z"/>
  </g>
</svg>