<?xml version="1.0" ?>
<svg height="32" id="svg2" version="1.1" viewBox="0 0 32 32.000001" width="32" xmlns="http://www.w3.org/2000/svg" xmlns:cc="http://creativecommons.org/ns#" xmlns:dc="http://purl.org/dc/elements/1.1/" xmlns:inkscape="http://www.inkscape.org/namespaces/inkscape" xmlns:rdf="http://www.w3.org/1999/02/22-rdf-syntax-ns#" xmlns:sodipodi="http://sodipodi.sourceforge.net/DTD/sodipodi-0.dtd" xmlns:svg="http://www.w3.org/2000/svg"><defs id="defs4"/><g id="layer1" transform="translate(0,-1020.3622)">
<style>
	.img{
		stroke:#fff;
	}
</style>
<path class="img" d="m 10,1047.8622 12.000001,0 0,2 -12.000001,0 z" id="rect11359" style="opacity:1;fill:none;fill-opacity:1;stroke:#fff;stroke-width:1;stroke-linecap:butt;stroke-linejoin:round;stroke-miterlimit:4;stroke-dasharray:none;stroke-opacity:1"/>
<path class="img" d="m 14.5,1047.8622 0,-4 c 0,-0.5523 0.447715,-1 1,-1 l 1,0 c 0.552285,0 1,0.4477 1,1 l 0,4" id="path11361" style="opacity:1;fill:none;fill-opacity:1;stroke:#fff;stroke-width:1;stroke-linecap:butt;stroke-linejoin:round;stroke-miterlimit:4;stroke-dasharray:none;stroke-opacity:1"/>
<path class="img" d="m 17.499984,1026.3622 a 1.4999837,1.4999837 0 0 1 -1.499984,1.5 1.4999837,1.4999837 0 0 1 -1.499984,-1.5 1.4999837,1.4999837 0 0 1 1.499984,-1.5 1.4999837,1.4999837 0 0 1 1.499984,1.5 z" id="circle11363" style="opacity:1;fill:none;fill-opacity:1;stroke:#fff;stroke-width:1;stroke-linecap:butt;stroke-linejoin:round;stroke-miterlimit:4;stroke-dasharray:none;stroke-opacity:1"/>
<path class="img" d="m 15.999972,1037.1122 0,5.4929" id="path11365" style="fill:none;fill-rule:evenodd;stroke:#fff;stroke-width:1px;stroke-linecap:round;stroke-linejoin:round;stroke-opacity:1"/>
<path class="img" d="m 16.000001,1023.3689 0,1.4862" id="path11367" style="fill:none;fill-rule:evenodd;stroke:#fff;stroke-width:0.99999988px;stroke-linecap:round;stroke-linejoin:round;stroke-opacity:1"/>
<path class="img" d="m 14.500001,1026.3622 -8.5000008,0 -3.5000001,11 0,0.75 a 3.25,3.25 0 0 0 3.25,3.25 l 3e-7,0 a 3.25,3.25 0 0 0 3.25,-3.25 l 0,-0.75 -3.0000002,-11" id="path11369" style="fill:none;fill-rule:evenodd;stroke:#fff;stroke-width:1px;stroke-linecap:butt;stroke-linejoin:round;stroke-opacity:1"/>
<path class="img" d="m 2.5000001,1037.8622 6.5000003,0" id="path11371" style="fill:none;fill-rule:evenodd;stroke:#fff;stroke-width:1px;stroke-linecap:butt;stroke-linejoin:miter;stroke-opacity:1"/>
<path class="img" d="m 17.499996,1026.3622 8.500001,0 3.5,11 0,0.75 a 3.25,3.25 0 0 1 -3.25,3.25 l 0,0 a 3.25,3.25 0 0 1 -3.25,-3.25 l 0,-0.75 3,-11" id="path11373" style="fill:none;fill-rule:evenodd;stroke:#fff;stroke-width:1px;stroke-linecap:butt;stroke-linejoin:round;stroke-opacity:1"/>
<path class="img" d="m 23.000001,1037.8622 6.5,0" id="path11375" style="fill:none;fill-rule:evenodd;stroke:#fff;stroke-width:1px;stroke-linecap:butt;stroke-linejoin:miter;stroke-opacity:1"/>
<path class="img" d="m 15.999972,1028.1193 0,5.4929" id="path14327" style="fill:none;fill-rule:evenodd;stroke:#fff;stroke-width:1px;stroke-linecap:round;stroke-linejoin:round;stroke-opacity:1"/>
<path class="img" d="m 16.49997,1035.3622 a 0.5,0.5 0 0 1 -0.5,0.5 0.5,0.5 0 0 1 -0.5,-0.5 0.5,0.5 0 0 1 0.5,-0.5 0.5,0.5 0 0 1 0.5,0.5 z" id="path12564-3" style="fill:#fff;fill-opacity:1;stroke:none;stroke-width:1;stroke-linecap:round;stroke-linejoin:round;stroke-miterlimit:4;stroke-dasharray:none;stroke-opacity:1"/></g></svg>