<?xml version="1.0" encoding="utf-8"?>
<!-- Generator: Adobe Illustrator 23.0.6, SVG Export Plug-In . SVG Version: 6.00 Build 0)  -->
<svg version="1.1" id="Layer_1" xmlns="http://www.w3.org/2000/svg" xmlns:xlink="http://www.w3.org/1999/xlink" x="0px" y="0px"
	 viewBox="0 0 50 50" style="enable-background:new 0 0 50 50;" xml:space="preserve">
<style type="text/css">
	.st0{fill:#FFFFFF;}
</style>
<rect x="21" y="18" class="st0" width="2" height="2"/>
<rect x="25" y="18" class="st0" width="2" height="2"/>
<rect x="29" y="18" class="st0" width="2" height="2"/>
<rect x="33" y="18" class="st0" width="2" height="2"/>
<rect x="21" y="22" class="st0" width="2" height="2"/>
<rect x="25" y="22" class="st0" width="2" height="2"/>
<rect x="29" y="22" class="st0" width="2" height="2"/>
<rect x="33" y="22" class="st0" width="2" height="2"/>
<rect x="21" y="26" class="st0" width="2" height="2"/>
<rect x="25" y="26" class="st0" width="2" height="2"/>
<rect x="29" y="26" class="st0" width="2" height="2"/>
<rect x="33" y="26" class="st0" width="2" height="2"/>
<rect x="21" y="30" class="st0" width="2" height="2"/>
<rect x="25" y="30" class="st0" width="2" height="2"/>
<rect x="29" y="30" class="st0" width="2" height="2"/>
<rect x="33" y="30" class="st0" width="2" height="2"/>
<rect x="5" y="24" class="st0" width="2" height="2"/>
<rect x="9" y="24" class="st0" width="2" height="2"/>
<rect x="13" y="24" class="st0" width="2" height="2"/>
<rect x="5" y="28" class="st0" width="2" height="2"/>
<rect x="9" y="28" class="st0" width="2" height="2"/>
<rect x="13" y="28" class="st0" width="2" height="2"/>
<rect x="5" y="32" class="st0" width="2" height="2"/>
<rect x="9" y="32" class="st0" width="2" height="2"/>
<rect x="13" y="32" class="st0" width="2" height="2"/>
<rect x="5" y="36" class="st0" width="2" height="2"/>
<rect x="9" y="36" class="st0" width="2" height="2"/>
<rect x="13" y="36" class="st0" width="2" height="2"/>
<rect x="41" y="22.3" class="st0" width="4" height="1.4"/>
<rect x="41" y="18.3" class="st0" width="4" height="1.4"/>
<rect x="41" y="26.3" class="st0" width="4" height="1.4"/>
<rect x="41" y="30.3" class="st0" width="4" height="1.4"/>
<rect x="41" y="34.3" class="st0" width="4" height="1.4"/>
<rect x="41" y="38.3" class="st0" width="4" height="1.4"/>
<rect x="41" y="42.3" class="st0" width="4" height="1.4"/>
<path class="st0" d="M45.7,9.3h-1.4v4.2l-7-4.9v5.7h-3.6v-7h-5v-6h-1.4v6h-5v7h-5v6H4.7v-2l1.5-1.5l0.2,0.1c0.8,0.5,1.7,0.8,2.6,0.8
	c1.3,0,2.4-0.5,3.3-1.4l0.5-0.5L6.2,9.2L5.7,9.7c-1.6,1.6-1.8,4.1-0.6,5.9l0.1,0.2l-1.9,1.9v2.6h-2v28.4h47.4V16.6l-3-2.1V9.3z
	 M6,11.6l0.2-0.4l4.6,4.6L10.4,16C10,16.2,9.5,16.3,9,16.3c-0.9,0-1.7-0.3-2.3-1C5.7,14.3,5.4,12.8,6,11.6z M17.3,47.3H2.7V21.7
	h14.6C17.3,21.7,17.3,47.3,17.3,47.3z M23.7,8.7h8.6v5.6h-8.6C23.7,14.3,23.7,8.7,23.7,8.7z M30.3,47.3h-4.6v-7.6h4.6V47.3z
	 M37.3,47.3h-5.6v-9h-7.4v9h-5.6V15.7h18.6V47.3z M47.3,17.4v29.9h-8.6V11.4L47.3,17.4z"/>
</svg>
