<?xml version="1.0" ?>
<svg id="Layer_1" style="enable-background:new 0 0 100 100;" version="1.1" viewBox="0 0 100 100" xml:space="preserve" xmlns="http://www.w3.org/2000/svg" xmlns:xlink="http://www.w3.org/1999/xlink"><g>
<style>
	.img{
		fill:#fff;
	}
</style>
<path class="img" d="M71.1,90.6H28.9c-2.7,0-4.9-2.2-4.9-4.9V23.5c0-2.7,2.2-4.9,4.9-4.9h15v7c0,1.2,1,2.1,2.1,2.1H54c1.2,0,2.1-1,2.1-2.1v-7   h15c2.7,0,4.9,2.2,4.9,4.9v62.2C76,88.4,73.8,90.6,71.1,90.6z M28.9,20.6c-1.6,0-2.9,1.3-2.9,2.9v62.2c0,1.6,1.3,2.9,2.9,2.9h42.2   c1.6,0,2.9-1.3,2.9-2.9V23.5c0-1.6-1.3-2.9-2.9-2.9h-13v5c0,2.3-1.8,4.1-4.1,4.1H46c-2.3,0-4.1-1.9-4.1-4.1v-5H28.9z"/></g><g>
<path class="img" d="M50,56.3c-1.3,0-2.5-0.3-3.6-0.8c-3-1.4-4.9-4.4-4.9-7.7c0-4.7,3.8-8.5,8.5-8.5s8.5,3.8,8.5,8.5c0,3.3-1.9,6.3-4.9,7.7   C52.5,56,51.3,56.3,50,56.3z M50,41.3c-3.6,0-6.5,2.9-6.5,6.5c0,2.5,1.5,4.8,3.7,5.9c1.7,0.8,3.8,0.8,5.5,0   c2.3-1.1,3.7-3.4,3.7-5.9C56.5,44.2,53.6,41.3,50,41.3z"/></g><g>
<path class="img" d="M50.7,71.8c-0.1,0-0.2,0-0.3,0h-0.7c-3.3,0-6.2,0-8.4-0.8c-2.7-1-4-2.9-4-6.1c0-5.3,3.8-9.9,9.3-11.4l0.4-0.1l0.3,0.2   c1.7,0.8,3.8,0.8,5.5,0l0.3-0.2l0.4,0.1c5.5,1.4,9.3,6.1,9.3,11.4c0,3.1-1.3,5.1-4,6.1C56.6,71.8,53.9,71.8,50.7,71.8z M50,69.8   h0.3c3,0,5.8,0,7.7-0.7c1.9-0.7,2.7-1.9,2.7-4.2c0-4.3-3-8.1-7.4-9.3c-2.1,0.9-4.5,0.9-6.5,0c-4.4,1.3-7.4,5.1-7.4,9.3   c0,2.3,0.8,3.5,2.7,4.2c1.9,0.7,4.7,0.7,7.7,0.7H50z"/></g><g>
<path class="img" d="M64.3,82.6H35.8c-0.6,0-1-0.4-1-1s0.4-1,1-1h28.5c0.6,0,1,0.4,1,1S64.8,82.6,64.3,82.6z"/></g><g>
<path class="img" d="M61.5,77.6h-23c-0.6,0-1-0.4-1-1s0.4-1,1-1h23c0.6,0,1,0.4,1,1S62.1,77.6,61.5,77.6z"/></g><g>
<path class="img" d="M54,29.8H46c-2.3,0-4.1-1.9-4.1-4.1V13.5c0-2.3,1.8-4.1,4.1-4.1H54c2.3,0,4.1,1.9,4.1,4.1v12.1   C58.1,27.9,56.2,29.8,54,29.8z M46,11.4c-1.2,0-2.1,1-2.1,2.1v12.1c0,1.2,1,2.1,2.1,2.1H54c1.2,0,2.1-1,2.1-2.1V13.5   c0-1.2-1-2.1-2.1-2.1H46z"/></g></svg>